<svg xmlns="http://www.w3.org/2000/svg" viewBox="0 0 40.45 55.21"><defs><style>.cls-1{fill:#01838f;}.cls-2{fill:#fff;}.cls-3{fill:#d1d3d4;}.cls-4{font-size:2.37px;font-family:CeraPro-Black, Cera Pro;font-weight:800;}.cls-4,.cls-6,.cls-7{fill:#414042;}.cls-5{letter-spacing:-0.05em;}.cls-7{font-size:9.43px;font-family:CeraPro-Medium, Cera Pro;font-weight:500;}</style></defs><g id="Layer_2" data-name="Layer 2"><circle class="cls-1" cx="20.27" cy="19.26" r="16.33"/><path class="cls-2" d="M32.78,16.81,29.9,20.35,17.27,10.05l2.88-3.53,5.17,4.21a1.48,1.48,0,1,0,2.29,1.87Z"/><path class="cls-3" d="M16.72,19.26l-1.89,2.32,8.45,6.89L20.4,32l-5.17-4.21a1.48,1.48,0,1,0-2.29-1.87L7.77,21.71l7.65-9.39,12.63,10.3-2.88,3.53Z"/><path class="cls-1" d="M14.3,44.44l-2,5.27h-.22l-1.64-4.12L8.83,49.71H8.61l-2-5.27h.67l1.43,4,1.62-4h.22l1.62,4,1.43-4Z"/><path class="cls-1" d="M17.58,44.35a2.64,2.64,0,0,1,1.91.78,2.73,2.73,0,0,1,0,3.82,2.63,2.63,0,0,1-1.91.77,2.69,2.69,0,1,1,0-5.37Zm0,.57a2,2,0,0,0-1.47.59,2.23,2.23,0,0,0,0,3,2.09,2.09,0,0,0,2.95,0,2.24,2.24,0,0,0,0-3,2,2,0,0,0-1.47-.6Z"/><path class="cls-1" d="M24.71,49.62,23.1,47.45H22v2.17h-.62V44.44H23.2a1.69,1.69,0,0,1,1.2.42,1.41,1.41,0,0,1,.45,1.08,1.46,1.46,0,0,1-.29.91,1.58,1.58,0,0,1-.8.52l1.65,2.25ZM22,46.9h1.19a1.09,1.09,0,0,0,.77-.26,1,1,0,0,0,0-1.39,1,1,0,0,0-.77-.26H22Z"/><path class="cls-1" d="M26.86,49.07h2.46l-.05.55h-3V44.44h.61Z"/><path class="cls-1" d="M31.77,44.44a2.86,2.86,0,0,1,2.05.72A2.41,2.41,0,0,1,34.59,47a2.44,2.44,0,0,1-.77,1.87,2.83,2.83,0,0,1-2.05.73H30.22V44.44Zm-.92.57V49.1h.92a2.18,2.18,0,0,0,1.6-.59,2.14,2.14,0,0,0,0-2.95A2.21,2.21,0,0,0,31.76,45Z"/><text class="cls-4" transform="translate(27.69 51.7)">.NE<tspan class="cls-5" x="3.71" y="0">T</tspan></text><path class="cls-6" d="M15.34,39.85l-1.55-.12v4h-1v-4l-1.53.12V39h4.06Z"/><path class="cls-6" d="M35.21,39.85l-1.54-.12v4h-1v-4l-1.54.12V39h4.06Z"/><path class="cls-6" d="M17,43.76H16V39h1Z"/><path class="cls-6" d="M21.51,42.43a1.7,1.7,0,0,1-1.16.53,1.51,1.51,0,0,1-1.11-.44,1.49,1.49,0,0,1-.44-1.12,1.54,1.54,0,0,1,.44-1.15,1.51,1.51,0,0,1,1.11-.44,1.46,1.46,0,0,1,1.16.52V39.18A3.22,3.22,0,0,0,21,39a2.41,2.41,0,0,0-.67-.11,2.52,2.52,0,0,0-1.82.72,2.5,2.5,0,0,0,0,3.55,2.52,2.52,0,0,0,1.82.72,2.62,2.62,0,0,0,1.17-.27Z"/><path class="cls-6" d="M25.36,43.76l-2.06-2.5v2.5h-1V39h1v2.23L25.13,39H26.3l-1.84,2.26,2.08,2.54Z"/><path class="cls-6" d="M30.38,39.84H28.22v1h1.65l-.1.84H28.22v1.26l2.34-.05-.1.89H27.24V39h3.22Z"/><text class="cls-7" transform="matrix(0.89, 0.46, -0.46, 0.89, 5.24, 42.12)">e</text></g></svg>